<svg width="5" height="8" viewBox="0 0 5 8" fill="none" xmlns="http://www.w3.org/2000/svg">
<path fill-rule="evenodd" clip-rule="evenodd" d="M0.714286 0.357143C0.619566 0.357143 0.528725 0.39477 0.461748 0.461748C0.39477 0.528725 0.357143 0.619565 0.357143 0.714286V5.71429C0.357143 5.80901 0.39477 5.89985 0.461748 5.96682C0.528725 6.0338 0.619566 6.07143 0.714286 6.07143H2.67857V6.42857H0.714286C0.524845 6.42857 0.343164 6.35332 0.209209 6.21936C0.0752549 6.08541 0 5.90373 0 5.71429V0.714286C0 0.524845 0.0752549 0.343164 0.209209 0.209209C0.343164 0.0752549 0.524845 0 0.714286 0H4.28571C4.47515 0 4.65684 0.0752549 4.79079 0.209209C4.92475 0.343164 5 0.524845 5 0.714286V5.71429C5 5.90373 4.92475 6.08541 4.79079 6.21936C4.65684 6.35332 4.47515 6.42857 4.28571 6.42857H3.75V6.07143H4.28571C4.38043 6.07143 4.47128 6.0338 4.53825 5.96682C4.60523 5.89985 4.64286 5.80901 4.64286 5.71429V0.714286C4.64286 0.619565 4.60523 0.528725 4.53825 0.461748C4.47128 0.39477 4.38043 0.357143 4.28571 0.357143H0.714286Z" fill="white"/>
<path fill-rule="evenodd" clip-rule="evenodd" d="M1.42857 1.25C1.42857 1.20264 1.44738 1.15722 1.48087 1.12373C1.51436 1.09024 1.55978 1.07142 1.60714 1.07142H3.39286C3.44022 1.07142 3.48564 1.09024 3.51913 1.12373C3.55261 1.15722 3.57143 1.20264 3.57143 1.25C3.57143 1.29736 3.55261 1.34278 3.51913 1.37626C3.48564 1.40975 3.44022 1.42857 3.39286 1.42857H1.60714C1.55978 1.42857 1.51436 1.40975 1.48087 1.37626C1.44738 1.34278 1.42857 1.29736 1.42857 1.25Z" fill="white"/>
<path fill-rule="evenodd" clip-rule="evenodd" d="M0.714288 2.32143C0.714288 2.27407 0.733102 2.22865 0.76659 2.19516C0.800079 2.16167 0.845499 2.14286 0.892859 2.14286H4.10714C4.15451 2.14286 4.19993 2.16167 4.23341 2.19516C4.2669 2.22865 4.28572 2.27407 4.28572 2.32143C4.28572 2.36879 4.2669 2.41421 4.23341 2.4477C4.19993 2.48119 4.15451 2.5 4.10714 2.5H0.892859C0.845499 2.5 0.800079 2.48119 0.76659 2.4477C0.733102 2.41421 0.714288 2.36879 0.714288 2.32143Z" fill="white"/>
<path fill-rule="evenodd" clip-rule="evenodd" d="M0.714288 3.03571C0.714288 2.98835 0.733102 2.94293 0.76659 2.90944C0.800079 2.87596 0.845499 2.85714 0.892859 2.85714H4.10714C4.15451 2.85714 4.19993 2.87596 4.23341 2.90944C4.2669 2.94293 4.28572 2.98835 4.28572 3.03571C4.28572 3.08307 4.2669 3.12849 4.23341 3.16198C4.19993 3.19547 4.15451 3.21428 4.10714 3.21428H0.892859C0.845499 3.21428 0.800079 3.19547 0.76659 3.16198C0.733102 3.12849 0.714288 3.08307 0.714288 3.03571Z" fill="white"/>
<path fill-rule="evenodd" clip-rule="evenodd" d="M0.714288 3.75C0.714288 3.70264 0.733102 3.65722 0.76659 3.62373C0.800079 3.59024 0.845499 3.57142 0.892859 3.57142H4.10714C4.15451 3.57142 4.19993 3.59024 4.23341 3.62373C4.2669 3.65722 4.28572 3.70264 4.28572 3.75C4.28572 3.79736 4.2669 3.84278 4.23341 3.87627C4.19993 3.90975 4.15451 3.92857 4.10714 3.92857H0.892859C0.845499 3.92857 0.800079 3.90975 0.76659 3.87627C0.733102 3.84278 0.714288 3.79736 0.714288 3.75Z" fill="white"/>
<path fill-rule="evenodd" clip-rule="evenodd" d="M3.21429 5.53571C3.30901 5.53571 3.39985 5.49808 3.46682 5.43111C3.5338 5.36413 3.57143 5.27329 3.57143 5.17857C3.57143 5.08385 3.5338 4.99301 3.46682 4.92603C3.39985 4.85905 3.30901 4.82143 3.21429 4.82143C3.11957 4.82143 3.02872 4.85905 2.96175 4.92603C2.89477 4.99301 2.85714 5.08385 2.85714 5.17857C2.85714 5.27329 2.89477 5.36413 2.96175 5.43111C3.02872 5.49808 3.11957 5.53571 3.21429 5.53571V5.53571ZM3.21429 5.89285C3.40373 5.89285 3.58541 5.8176 3.71936 5.68364C3.85332 5.54969 3.92857 5.36801 3.92857 5.17857C3.92857 4.98913 3.85332 4.80745 3.71936 4.67349C3.58541 4.53954 3.40373 4.46428 3.21429 4.46428C3.02485 4.46428 2.84316 4.53954 2.70921 4.67349C2.57526 4.80745 2.5 4.98913 2.5 5.17857C2.5 5.36801 2.57526 5.54969 2.70921 5.68364C2.84316 5.8176 3.02485 5.89285 3.21429 5.89285Z" fill="white"/>
<path fill-rule="evenodd" clip-rule="evenodd" d="M3.03571 5.53572H2.67857V7.14286L3.21429 6.875L3.75 7.14286V5.53572H3.39286V6.565L3.21429 6.47572L3.03571 6.565V5.53572Z" fill="white"/>
</svg>
